<svg width="20" height="16" viewBox="0 0 20 16" fill="none" xmlns="http://www.w3.org/2000/svg">
<path d="M19.4737 4.46617C19.2528 4.67493 19.0318 4.88369 18.8171 5.09878C18.6024 5.31387 18.4004 5.54161 18.1731 5.78833C15.8686 3.5552 13.16 2.37854 9.99058 2.37854C6.83374 2.37854 4.13779 3.5552 1.89644 5.72507C1.44817 5.28224 1.01883 4.85206 0.526367 4.35862C1.20825 3.82723 1.87118 3.22624 2.60988 2.73281C7.86918 -0.759218 14.6501 -0.151909 19.2338 4.20047C19.3096 4.27006 19.3917 4.33332 19.4737 4.39658C19.4737 4.42188 19.4737 4.44086 19.4737 4.46617Z" fill="#292929"/>
<path d="M9.68719 15.4738C9.60511 15.4358 9.52304 15.3915 9.43464 15.3536C8.76539 15.0689 8.39289 14.3667 8.53179 13.6519C8.67069 12.9433 9.29574 12.4309 10.0218 12.4309C10.7416 12.4372 11.3666 12.956 11.4992 13.6645C11.6318 14.373 11.2467 15.0752 10.5711 15.3536C10.4827 15.3915 10.4006 15.4295 10.3122 15.4675C10.1039 15.4738 9.89554 15.4738 9.68719 15.4738Z" fill="#292929"/>
<path d="M4.56084 8.40111C4.11257 7.95828 3.68324 7.53443 3.25391 7.10425C6.51808 3.56162 12.8507 3.09349 16.7399 7.06629C16.3043 7.49647 15.8623 7.92665 15.4141 8.36948C13.9367 6.95243 12.1246 6.15533 9.99061 6.16166C7.8629 6.16798 6.05718 6.95875 4.56084 8.40111Z" fill="#292929"/>
<path d="M14.1069 9.76749C13.6586 10.2103 13.2293 10.6405 12.8 11.0643C11.1142 9.47017 8.68343 9.64097 7.22497 11.058C6.79564 10.6278 6.36631 10.204 5.93066 9.77382C7.66061 7.74313 11.6319 7.23072 14.1069 9.76749Z" fill="#292929"/>
</svg>
